<mxfile host="app.diagrams.net" agent="Mozilla/5.0 (Windows NT 10.0; Win64; x64) AppleWebKit/537.36 (KHTML, like Gecko) Chrome/129.0.0.0 Safari/537.36" version="24.7.16">
  <diagram id="C5RBs43oDa-KdzZeNtuy" name="Page-1">
    <mxGraphModel dx="911" dy="526" grid="1" gridSize="10" guides="1" tooltips="1" connect="1" arrows="1" fold="1" page="1" pageScale="1" pageWidth="827" pageHeight="1169" math="0" shadow="0">
      <root>
        <mxCell id="WIyWlLk6GJQsqaUBKTNV-0" />
        <mxCell id="WIyWlLk6GJQsqaUBKTNV-1" parent="WIyWlLk6GJQsqaUBKTNV-0" />
        <mxCell id="tOpxADcuduA2cvzw2Qei-0" value="&lt;font color=&quot;#00cc00&quot;&gt;&lt;b&gt;Perception + Network Layer&lt;/b&gt;&lt;/font&gt;&lt;br&gt;&lt;div&gt;sensors, controllers,&lt;/div&gt;&lt;div&gt;actuators&lt;/div&gt;" style="whiteSpace=wrap;html=1;aspect=fixed;" vertex="1" parent="WIyWlLk6GJQsqaUBKTNV-1">
          <mxGeometry x="60" y="230" width="130" height="130" as="geometry" />
        </mxCell>
        <mxCell id="tOpxADcuduA2cvzw2Qei-1" value="&lt;b&gt;&lt;font color=&quot;#00cc00&quot;&gt;MongoDB database&lt;/font&gt;&lt;/b&gt;" style="shape=cylinder3;whiteSpace=wrap;html=1;boundedLbl=1;backgroundOutline=1;size=15;" vertex="1" parent="WIyWlLk6GJQsqaUBKTNV-1">
          <mxGeometry x="70" y="424" width="90" height="120" as="geometry" />
        </mxCell>
        <mxCell id="tOpxADcuduA2cvzw2Qei-2" value="&lt;b&gt;&lt;font color=&quot;#00cc00&quot;&gt;Application Layer&lt;/font&gt;&lt;/b&gt;&lt;div&gt;Node-Express Server&lt;/div&gt;" style="whiteSpace=wrap;html=1;aspect=fixed;" vertex="1" parent="WIyWlLk6GJQsqaUBKTNV-1">
          <mxGeometry x="290" y="420" width="130" height="130" as="geometry" />
        </mxCell>
        <mxCell id="tOpxADcuduA2cvzw2Qei-3" value="&lt;b&gt;&lt;font color=&quot;#00cc00&quot;&gt;Hivemq Cloud&lt;/font&gt;&lt;/b&gt;" style="ellipse;shape=cloud;whiteSpace=wrap;html=1;" vertex="1" parent="WIyWlLk6GJQsqaUBKTNV-1">
          <mxGeometry x="267" y="223" width="160" height="120" as="geometry" />
        </mxCell>
        <mxCell id="tOpxADcuduA2cvzw2Qei-4" value="" style="endArrow=classic;html=1;rounded=0;exitX=1.033;exitY=0.388;exitDx=0;exitDy=0;exitPerimeter=0;" edge="1" parent="WIyWlLk6GJQsqaUBKTNV-1" source="tOpxADcuduA2cvzw2Qei-0">
          <mxGeometry width="50" height="50" relative="1" as="geometry">
            <mxPoint x="200" y="290" as="sourcePoint" />
            <mxPoint x="260" y="280" as="targetPoint" />
          </mxGeometry>
        </mxCell>
        <mxCell id="tOpxADcuduA2cvzw2Qei-5" value="&lt;font style=&quot;font-size: 11px;&quot;&gt;Sensor Data&lt;/font&gt;" style="text;html=1;align=center;verticalAlign=middle;resizable=0;points=[];autosize=1;strokeColor=none;fillColor=none;fontSize=11;fontColor=#007FFF;" vertex="1" parent="WIyWlLk6GJQsqaUBKTNV-1">
          <mxGeometry x="190" y="255" width="80" height="30" as="geometry" />
        </mxCell>
        <mxCell id="tOpxADcuduA2cvzw2Qei-10" value="" style="endArrow=classic;html=1;rounded=0;exitX=1.033;exitY=0.388;exitDx=0;exitDy=0;exitPerimeter=0;" edge="1" parent="WIyWlLk6GJQsqaUBKTNV-1">
          <mxGeometry width="50" height="50" relative="1" as="geometry">
            <mxPoint x="263" y="321" as="sourcePoint" />
            <mxPoint x="197" y="321" as="targetPoint" />
          </mxGeometry>
        </mxCell>
        <mxCell id="tOpxADcuduA2cvzw2Qei-11" value="Actuation Signal" style="text;html=1;align=center;verticalAlign=middle;resizable=0;points=[];autosize=1;strokeColor=none;fillColor=none;fontSize=11;fontColor=#007FFF;" vertex="1" parent="WIyWlLk6GJQsqaUBKTNV-1">
          <mxGeometry x="183" y="295" width="100" height="30" as="geometry" />
        </mxCell>
        <mxCell id="tOpxADcuduA2cvzw2Qei-12" value="&lt;font style=&quot;font-size: 11px;&quot;&gt;Sensor Data&lt;/font&gt;" style="text;html=1;align=center;verticalAlign=middle;resizable=0;points=[];autosize=1;strokeColor=none;fillColor=none;fontSize=11;fontColor=#007FFF;rotation=-90;" vertex="1" parent="WIyWlLk6GJQsqaUBKTNV-1">
          <mxGeometry x="255" y="365" width="80" height="30" as="geometry" />
        </mxCell>
        <mxCell id="tOpxADcuduA2cvzw2Qei-13" value="" style="endArrow=classic;html=1;rounded=0;exitX=0.987;exitY=1.172;exitDx=0;exitDy=0;exitPerimeter=0;entryX=0.136;entryY=-0.024;entryDx=0;entryDy=0;entryPerimeter=0;" edge="1" parent="WIyWlLk6GJQsqaUBKTNV-1">
          <mxGeometry width="50" height="50" relative="1" as="geometry">
            <mxPoint x="308.4399999999998" y="342.90999999999974" as="sourcePoint" />
            <mxPoint x="307.67999999999984" y="413.88" as="targetPoint" />
          </mxGeometry>
        </mxCell>
        <mxCell id="tOpxADcuduA2cvzw2Qei-14" value="Actuation Signal" style="text;html=1;align=center;verticalAlign=middle;resizable=0;points=[];autosize=1;strokeColor=none;fillColor=none;fontSize=11;fontColor=#007FFF;rotation=-90;" vertex="1" parent="WIyWlLk6GJQsqaUBKTNV-1">
          <mxGeometry x="356" y="363" width="100" height="30" as="geometry" />
        </mxCell>
        <mxCell id="tOpxADcuduA2cvzw2Qei-16" value="&lt;font style=&quot;font-size: 11px;&quot;&gt;Sensor Data&lt;/font&gt;" style="text;html=1;align=center;verticalAlign=middle;resizable=0;points=[];autosize=1;strokeColor=none;fillColor=none;fontSize=11;fontColor=#007FFF;" vertex="1" parent="WIyWlLk6GJQsqaUBKTNV-1">
          <mxGeometry x="190" y="465" width="80" height="30" as="geometry" />
        </mxCell>
        <mxCell id="tOpxADcuduA2cvzw2Qei-17" value="" style="endArrow=classic;html=1;rounded=0;" edge="1" parent="WIyWlLk6GJQsqaUBKTNV-1">
          <mxGeometry width="50" height="50" relative="1" as="geometry">
            <mxPoint x="270" y="490" as="sourcePoint" />
            <mxPoint x="170" y="490" as="targetPoint" />
          </mxGeometry>
        </mxCell>
        <mxCell id="tOpxADcuduA2cvzw2Qei-20" value="" style="endArrow=classic;html=1;rounded=0;entryX=0.136;entryY=-0.024;entryDx=0;entryDy=0;entryPerimeter=0;" edge="1" parent="WIyWlLk6GJQsqaUBKTNV-1">
          <mxGeometry width="50" height="50" relative="1" as="geometry">
            <mxPoint x="390.67999999999984" y="412.88" as="sourcePoint" />
            <mxPoint x="390" y="342" as="targetPoint" />
          </mxGeometry>
        </mxCell>
      </root>
    </mxGraphModel>
  </diagram>
</mxfile>
